# xmcd
#
# Track frame offsets:
#	150
#	9221
#	23932
#	43506
#	61087
#	77883
#	97472
#	132463
#	150716
#	168773
#	192212
#	203034
#	249321
#	256673
#	275391
#	307451
#	325191
#
# Disc length: 4727 seconds
#
# Revision: 0
# Processed by: cddbd v1.5.2PL0 Copyright (c) Steve Scherf et al.
# Submitted via: dBpowerAMP V4.0
#
DISCID=e3127511
DTITLE=Eagles - Long road to eden
DYEAR=1900
DGENRE=Country
TTITLE0=No More Walks In the Wood
TTITLE1=How lOng
TTITLE2=Busy Being Fabulous
TTITLE3=What Do I Do With My Heart
TTITLE4=Guilty Of The Crime
TTITLE5=I Don't Want To Hear Any More
TTITLE6=Waiting In the Weeds
TTITLE7=No More Cloudy Days
TTITLE8=Fast Company
TTITLE9=Do Something
TTITLE10=You Are Not Alone
TTITLE11=Long Road Out Of Eden
TTITLE12=I Dreamed There Was No War
TTITLE13=Somebody
TTITLE14=Last Good There Was No War
TTITLE15=Business As Usual
TTITLE16=Hotel California
EXTD=
EXTT0=
EXTT1=
EXTT2=
EXTT3=
EXTT4=
EXTT5=
EXTT6=
EXTT7=
EXTT8=
EXTT9=
EXTT10=
EXTT11=
EXTT12=
EXTT13=
EXTT14=
EXTT15=
EXTT16=
PLAYORDER=
